<svg xmlns="http://www.w3.org/2000/svg" xmlns:xlink="http://www.w3.org/1999/xlink" viewBox="0 0 177.59 177.59"><defs><linearGradient id="orange_to_red" x1="88.8" x2="88.8" y2="177.59" gradientUnits="userSpaceOnUse"><stop offset="0" stop-color="#d12027"/><stop offset="1" stop-color="#e05725"/></linearGradient></defs><title>drinks</title><g id="Layer_2" data-name="Layer 2"><g id="truck_photo" data-name="truck photo"><circle cx="88.8" cy="88.8" r="88.8" fill="url(#orange_to_red)"/><path d="M121.18,62.77H56.41A1.42,1.42,0,0,0,55,64.19v6.27a1.41,1.41,0,0,0,1.41,1.41H60.9l9.82,65.8a4.64,4.64,0,0,0,4.44,3.83h28.9a4.65,4.65,0,0,0,4.45-3.83l9.81-65.8h2.86a1.42,1.42,0,0,0,1.42-1.41V64.19A1.43,1.43,0,0,0,121.18,62.77Z" fill="#fff"/><polyline points="89.61 73.29 89.61 39.7 106.51 28.09" fill="none" stroke="#fff" stroke-linecap="round" stroke-linejoin="round" stroke-width="4.48"/></g></g></svg>