<svg xmlns="http://www.w3.org/2000/svg" xmlns:xlink="http://www.w3.org/1999/xlink" viewBox="0 0 177.59 177.59"><defs><linearGradient id="orange_to_red" x1="88.8" x2="88.8" y2="177.59" gradientUnits="userSpaceOnUse"><stop offset="0" stop-color="#d12027"/><stop offset="1" stop-color="#e05725"/></linearGradient></defs><title>meats</title><g id="Layer_2" data-name="Layer 2"><g id="truck_photo" data-name="truck photo"><circle cx="88.8" cy="88.8" r="88.8" fill="url(#orange_to_red)"/><path d="M120.2,100.66A33.14,33.14,0,0,0,132,93c13.4-13.39,13.08-35.43-.71-49.22S95.49,29.7,82.1,43.09a33.36,33.36,0,0,0-7.64,11.83L63.14,84.35A21.39,21.39,0,0,0,90.78,112Z" fill="#fff"/><path d="M64.5,121l13.69-13.69L67.52,96.64l-13.7,13.7a9.69,9.69,0,1,0-5.93,16.9A9.68,9.68,0,1,0,64.5,121Z" fill="none" stroke="#fff" stroke-miterlimit="10" stroke-width="3"/></g></g></svg>