<svg xmlns="http://www.w3.org/2000/svg" xmlns:xlink="http://www.w3.org/1999/xlink" viewBox="0 0 177.59 177.59"><defs><linearGradient id="orange_to_red" x1="88.8" x2="88.8" y2="177.59" gradientUnits="userSpaceOnUse"><stop offset="0" stop-color="#d12027"/><stop offset="1" stop-color="#e05725"/></linearGradient></defs><title>sides</title><g id="Layer_2" data-name="Layer 2"><g id="truck_photo" data-name="truck photo"><circle cx="88.8" cy="88.8" r="88.8" fill="url(#orange_to_red)"/><path d="M142.09,85.29H35.24c0,18.37,14.83,34,35.53,39.82v3.44a2.91,2.91,0,0,0,2.91,2.91h30a2.91,2.91,0,0,0,2.92-2.91v-3.44C127.27,119.29,142.09,103.66,142.09,85.29Z" fill="#fff"/><path d="M122.32,64.63a13.27,13.27,0,0,0-2,.15A19.21,19.21,0,0,0,88.67,52.56,19.22,19.22,0,0,0,57,64.78a13.13,13.13,0,0,0-2-.15A13.69,13.69,0,0,0,41.33,78.31c0,.43,0,.85.06,1.27h94.55c0-.42.06-.84.06-1.27A13.69,13.69,0,0,0,122.32,64.63Z" fill="#fff"/></g></g></svg>