<svg xmlns="http://www.w3.org/2000/svg" xmlns:xlink="http://www.w3.org/1999/xlink" viewBox="0 0 177.59 177.59"><defs><linearGradient id="purple_to_red_purple" x1="88.8" x2="88.8" y2="177.59" gradientUnits="userSpaceOnUse"><stop offset="0" stop-color="#563d79"/><stop offset="1" stop-color="#ac3c5b"/></linearGradient></defs><title>truck</title><g id="Layer_2" data-name="Layer 2"><g id="truck_photo" data-name="truck photo"><circle cx="88.8" cy="88.8" r="88.8" fill="url(#purple_to_red_purple)"/><path d="M54.67,102.61a11.2,11.2,0,1,0,11.2,11.2A11.2,11.2,0,0,0,54.67,102.61Zm.48,12.75a1.63,1.63,0,1,1,1.07-2A1.62,1.62,0,0,1,55.15,115.36Z" fill="#fff"/><path d="M150.2,92.53l-10.57-5.28L130,59.69a5.91,5.91,0,0,0-5.2-3.69H33.4a3.92,3.92,0,0,0-3.91,3.91V90.63a1.14,1.14,0,0,1,0,.52v17.19a3.91,3.91,0,0,0,3.91,3.9h7a14.31,14.31,0,0,1,28.46,0h40.28a14.31,14.31,0,0,1,28.46,0h12.15a3.91,3.91,0,0,0,3.9-3.9V98.18A6.93,6.93,0,0,0,150.2,92.53ZM91.52,85.16a2.24,2.24,0,0,1-2.24,2.24H40.39a2.24,2.24,0,0,1-2.24-2.24V66.83a2.24,2.24,0,0,1,2.24-2.24H89.28a2.24,2.24,0,0,1,2.24,2.24Zm38.25,2.24H102.53a2.35,2.35,0,0,1-2.35-2.34V71.27a2.36,2.36,0,0,1,2.35-2.35h20.86a3.53,3.53,0,0,1,3.11,2.22l4.85,14A1.57,1.57,0,0,1,129.77,87.4Z" fill="#fff"/><path d="M123.41,102.61a11.2,11.2,0,1,0,11.2,11.2A11.2,11.2,0,0,0,123.41,102.61Zm.49,12.75a1.63,1.63,0,1,1,1.06-2A1.63,1.63,0,0,1,123.9,115.36Z" fill="#fff"/></g></g></svg>