<svg xmlns="http://www.w3.org/2000/svg" xmlns:xlink="http://www.w3.org/1999/xlink" viewBox="0 0 769.2 370.19"><defs><linearGradient id="linear-gradient" x1="179.38" y1="455.17" x2="433.77" y2="14.56" gradientUnits="userSpaceOnUse"><stop offset="0" stop-color="#563d79"/><stop offset="0.16" stop-color="#ac3c5b"/><stop offset="0.49" stop-color="#d12027"/><stop offset="0.79" stop-color="#e05725"/><stop offset="0.9" stop-color="#f48221"/></linearGradient><linearGradient id="New_Gradient_Swatch_2" x1="581.74" y1="332.95" x2="710.76" y2="109.48" xlink:href="#linear-gradient"/></defs><title>Asset 1</title><g id="Layer_2" data-name="Layer 2"><g id="working"><path d="M337.41,125.56q8.05,7.6,23.47,7.61h27.61q7.8,0,12.14-3.32a11,11,0,0,0,4.34-9.27q0-8.68-12.29-8.68h-29q-11,0-11-7.32h19.51Q384,104.58,390,101q10.73-6.33,10.73-19.51,0-10.92-7.75-17.61t-20.54-6.68q-17.56,0-30.29,13.66a46,46,0,0,0-12.73,32.48Q329.37,118,337.41,125.56Zm34.1-48.49c4.29,0,6.54,1.73,6.73,5.17q.3,4.59-10.14,4.59H357.36Q362.54,77.07,371.51,77.07Zm82.34-19.9q-18.24,0-31.61,13.56t-13.36,32.1q0,17.55,13.07,26.53,5.57,3.81,21.46,3.81,9.75,0,15.17-1.51a30,30,0,0,0,10.49-5.52,45.07,45.07,0,0,0,12.39-16.43A48.83,48.83,0,0,0,486.24,89q0-13.84-9.12-22.83T453.85,57.17Zm2.63,50.34q-4,4.59-11.41,4.58-12.69,0-12.68-11.31a23.94,23.94,0,0,1,5.95-15.71q6-7.12,13.17-7.12a11,11,0,0,1,8.39,3.41,12.55,12.55,0,0,1,3.22,9A25.18,25.18,0,0,1,456.48,107.51Zm127.42,13a11.13,11.13,0,0,1-4.34,9.31q-4.35,3.38-12.15,3.37H550q-8.21,0-10.93-6.34a16.91,16.91,0,0,1-13.46,6.34H511.31a19.86,19.86,0,0,1-14.24-5.37,17.88,17.88,0,0,1-5.66-13.56A29.81,29.81,0,0,1,494,103.31l13.27-32.58q5.55-13.56,15.22-13.56a10.15,10.15,0,0,1,7.12,2.68,8.6,8.6,0,0,1,2.92,6.59,18.11,18.11,0,0,1-1.56,6.73l-1.07,2.63-10.24,25.08-1.08,2.92a17,17,0,0,0-1,3.81c-.13,2.92,1.75,4.39,5.66,4.39q12.09,0,16.09-9.76l12.2-30Q557,58.54,566.92,58.54a10,10,0,0,1,7,2.73,8.63,8.63,0,0,1,2.92,6.53q0,3-2.53,9.37L560.19,111.9h11.32c4.49,0,7.67.67,9.56,2S583.9,117.43,583.9,120.49ZM654.14,9.27a18.43,18.43,0,0,1-1.46,6.63l-1.08,2.64-38,93.36H623.9q12.39,0,12.39,8.68a11,11,0,0,1-4.35,9.27q-4.34,3.32-12.14,3.32H602.24q-7.23,0-11.42-3.42a11.22,11.22,0,0,1-4.19-9.17q0-3,2.83-10l39.41-97,1.07-2.63Q634.44,0,644.29,0a9.76,9.76,0,0,1,7,2.73A8.7,8.7,0,0,1,654.14,9.27Zm-418.82,267a11.12,11.12,0,0,1-4.34,9.37c-2.9,2.21-6.94,3.31-12.15,3.31H199.71a20.69,20.69,0,0,1-16-6.73q-6.19-6.74-6.19-17.46a28.66,28.66,0,0,1,3.31-13.27q3.31-6.44,11.71-15.8H182.44l-3.31,8.19q-4.5,10.93-11.71,10.93a10.52,10.52,0,0,1-7.32-2.64,8.42,8.42,0,0,1-2.92-6.53q0-2.25,2.14-7.61l11-27.22q4-9.85,11.31-9.86c4.82,0,7.77,2.28,8.88,6.83l.78,3c.39,1.56,1,2.53,1.76,2.93s2.7.58,5.75.58h22.83q12.78,0,12.78,9,0,12.39-16.19,12.39l-1.08,1q-15.51,14.84-15.51,22.93t9,8.1h12.29Q235.32,267.66,235.32,276.24ZM317,267.66H306.25l14.05-34.74,1.07-2.63a17.76,17.76,0,0,0,1.56-6.54,8.92,8.92,0,0,0-2.88-6.73,10,10,0,0,0-7.17-2.73q-7.9,0-12.78,7.32-5.76-8.69-18.24-8.69-16.31,0-29.22,14.78t-12.93,33.52q0,12.39,6.59,20t17.31,7.66h11.12q6.84,0,14.15-6.53,3,6.53,11.42,6.53h12.48q7.71,0,12.1-3.36a11.09,11.09,0,0,0,4.39-9.32Q329.27,267.66,317,267.66Zm-26.25-22.93-6.82,16.88q-2.64,6.52-10.64,6.53h-2.44q-8.1,0-8.1-10.05,0-8.86,6.74-17.17t13.85-8.29a10,10,0,0,1,6.2,2,5.66,5.66,0,0,1,2.58,4.59A15.24,15.24,0,0,1,290.73,244.73ZM373,183.17a13.49,13.49,0,1,1-9.61,4A13.11,13.11,0,0,1,373,183.17Zm10.44,93.17a11,11,0,0,1-4.35,9.27q-4.33,3.31-12.14,3.31H351.42q-8.6,0-13.52-3.51a11.14,11.14,0,0,1-4.92-9.56,22.51,22.51,0,0,1,2-8.19l16.09-39.61,1.08-2.74q4.49-11,14.44-11a10.11,10.11,0,0,1,7.07,2.73,8.58,8.58,0,0,1,3,6.54q0,3.12-2.63,9.56L360.1,267.66h11Q383.42,267.66,383.42,276.34Zm100.09,0a10.94,10.94,0,0,1-4.39,9.27q-4.39,3.31-12.1,3.31H446.63a14.48,14.48,0,0,1-10-3.61,11.65,11.65,0,0,1-4-9.07q0-3.32,2.73-9.95L443.9,245a17.36,17.36,0,0,0,1.47-5.36,4.74,4.74,0,0,0-1.91-4,7.72,7.72,0,0,0-5.12-1.66q-10.05,0-16.19,15.12l-11.51,28.29q-5.17,12.88-15.42,12.88a10.49,10.49,0,0,1-7.12-2.54,8,8,0,0,1-2.93-6.24,17.81,17.81,0,0,1,1.56-6.54l1.08-2.63,19.7-48.59q3.81-9.45,13-9.46a11.06,11.06,0,0,1,10.73,6.63q10.44-8,19.9-8,9.17,0,15.12,5.27a17.06,17.06,0,0,1,5.95,13.37,26.75,26.75,0,0,1-2.14,9.85l-10.64,26.25h11.71Q483.51,267.66,483.51,276.34ZM247.35,110l7.8-4.79q7.62-4.68,7.61-11.12a10.08,10.08,0,0,0-3.31-7.8,12.26,12.26,0,0,0-8.59-3q-10.14,0-22.14,9.47-22.64,17.85-22.64,44.58,0,21.85,14.54,35.86t37.27,14q29.36,0,47.51-20.79a51.77,51.77,0,0,0,13.27-35.21q0-20.68-15-39.22l-5.17-6.25-9-11.31h9.75q20.38,0,29.76-5.86Q345.5,58.25,345.49,39q0-14.43-10.39-23.51T308.23,6.45q-22,0-37.66,12.63T252.91,51H236.23c-5.73,0-10.16,1.22-13.32,3.66s-4.73,5.9-4.73,10.39q0,9.27,13.46,9.27H258q4,7.71,13.27,18,13.28,14.73,17.27,21.75a31,31,0,0,1,4,15.61,32.49,32.49,0,0,1-9.85,23.56q-9.85,10-23.22,10-12.1,0-19.95-7.56t-7.86-19.17a28.81,28.81,0,0,1,4.49-14.83A34,34,0,0,1,247.35,110ZM277.79,51q.58-8.39,9.22-14.93a31,31,0,0,1,19.17-6.53q6.74,0,10.78,2.73A8.35,8.35,0,0,1,321,39.52Q321,51,301.2,51Zm-99,136.8H160.48L115.71,298.68Q103.41,328.92,97,339.8a68.11,68.11,0,0,1-16.58,18.88,54.42,54.42,0,0,1-34.15,11.51q-20.58,0-33.41-12.93T0,323.55q0-27.41,20.2-48A80.39,80.39,0,0,1,47.32,257.8a83.79,83.79,0,0,1,32.19-6.73q7.6,0,12.34,3.46a10.69,10.69,0,0,1,4.73,9,11.26,11.26,0,0,1-5.07,9.65q-2.83,2.06-11.32,2.93Q60.69,277.9,48.88,285a45.59,45.59,0,0,0-15.71,15.61,38.49,38.49,0,0,0-5.76,20.19q0,10.94,5.76,17.27t15.61,6.34q11.7,0,20.49-10.14t19.12-35.61l44.76-110.85H114.7q-13.47,0-13.47-9.56a12,12,0,0,1,4.78-10.1q4.78-3.66,13.27-3.66s62.28,0,64.1,0c7.7.19,9.36,1.56,9.36,1.56q4.09,2.25,4.1,8a12,12,0,0,1-4.78,10.1Q187.28,187.83,178.79,187.83Z" fill="url(#linear-gradient)"/><path d="M763.63,140.87H662.17a5.58,5.58,0,1,0,0,11.15h8.71V195h-19.5V178a7.2,7.2,0,0,0-7.2-7.2h-3.77a7.2,7.2,0,0,0-7.2,7.2v17h-23V170.72h4.48a5.58,5.58,0,0,0,0-11.15H604.25V195h-4.06v-35.4H572a5.58,5.58,0,1,0,0,11.15h4.48V195H560.28a33.69,33.69,0,0,0-31.58,22,12,12,0,0,0,0,23.68,33.74,33.74,0,0,0,5.42,9.48l-33,34c-1.13,1.17-1.11,2.12.06,2.12h46.2a7,7,0,0,0,4.17-2.12l11.07-11.41a22,22,0,0,1,41.47-13.93A22,22,0,0,1,644,259a29,29,0,0,1,56.6-6.2,29,29,0,0,1,54.31-3.07V152h8.72a5.58,5.58,0,0,0,0-11.15ZM708,186.29a3.6,3.6,0,0,1-3.6,3.6H684.52a3.6,3.6,0,0,1-3.6-3.6V160.7a3.6,3.6,0,0,1,3.6-3.6H704.4a3.6,3.6,0,0,1,3.6,3.6Zm36.87,0a3.6,3.6,0,0,1-3.6,3.6H721.39a3.6,3.6,0,0,1-3.6-3.6V160.7a3.6,3.6,0,0,1,3.6-3.6h19.88a3.6,3.6,0,0,1,3.6,3.6Z" fill="url(#New_Gradient_Swatch_2)"/><path d="M584.18,250.14a18,18,0,1,0,18,18A18,18,0,0,0,584.18,250.14Zm.7,21.47a3.51,3.51,0,1,1,2.74-4.13A3.51,3.51,0,0,1,584.88,271.61Z" fill="#f48221"/><path d="M624,250.14a18,18,0,1,0,18,18A18,18,0,0,0,624,250.14Zm.7,21.47a3.51,3.51,0,1,1,2.74-4.13A3.51,3.51,0,0,1,624.69,271.61Z" fill="#f48221"/><path d="M672.89,236.25a25,25,0,1,0,25,25A25,25,0,0,0,672.89,236.25Zm.7,28.41a3.5,3.5,0,1,1,2.73-4.13A3.51,3.51,0,0,1,673.59,264.66Z" fill="#f48221"/><path d="M728.32,236.25a25,25,0,1,0,25,25A25,25,0,0,0,728.32,236.25Zm.7,28.41a3.5,3.5,0,1,1,2.74-4.13A3.51,3.51,0,0,1,729,264.66Z" fill="#f48221"/><path d="M141.18,341.55l-1.46,2.75v9.25H135v-30.1h4.73v13h.08l6.11-13h4.73l-6.58,13.41,6.58,16.69h-4.86Z" fill="#573c79"/><path d="M162.85,330.67c0-4.82,2.54-7.57,7.18-7.57s7.18,2.75,7.18,7.57v15.65c0,4.82-2.54,7.57-7.18,7.57s-7.18-2.75-7.18-7.57Zm4.73,15.95c0,2.15.95,3,2.45,3s2.45-.82,2.45-3V330.37c0-2.15-.94-3-2.45-3s-2.45.82-2.45,3Z" fill="#573c79"/><path d="M200.9,353.55a9.46,9.46,0,0,1-.43-3.7v-4.73c0-2.8-.94-3.83-3.09-3.83h-1.64v12.26H191v-30.1h7.14c4.9,0,7,2.28,7,6.92v2.36c0,3.1-1,5.08-3.09,6.07v.08c2.36,1,3.13,3.23,3.13,6.37v4.64a9,9,0,0,0,.52,3.66Zm-5.16-25.81V337h1.85c1.77,0,2.84-.77,2.84-3.18v-3c0-2.15-.73-3.1-2.41-3.1Z" fill="#573c79"/><path d="M223.78,336.13h6.49v4.3h-6.49v8.81H232v4.31h-12.9v-30.1H232v4.29h-8.17Z" fill="#573c79"/><path d="M260.93,353.55h-4.77l-.82-5.47h-5.8l-.82,5.47h-4.34l4.81-30.1h6.93ZM250.14,344h4.56l-2.24-15.22h-.09Z" fill="#573c79"/><path d="M278.17,331.74h-.08v21.81h-4.26v-30.1h5.94l4.77,18h.08v-18h4.22v30.1H284Z" fill="#573c79"/><path d="M323.71,337.68v-.09c-2.23-.94-3.27-2.92-3.27-6.15v-.55c0-4.82,2.33-7.44,7.05-7.44h5.42v4.29h-5.33c-1.5,0-2.41.78-2.41,2.93v1.85c0,2.41,1.08,3.18,2.84,3.18h2.06v-3.35h4.73v3.35h1.25V340H334.8v9.89a9,9,0,0,0,.52,3.66H330.5a7.53,7.53,0,0,1-.43-2.37H330a4.36,4.36,0,0,1-4.3,2.71c-3.48,0-5.25-2.45-5.25-6.88V344C320.44,340.9,321.39,338.71,323.71,337.68Zm3.91,11.91c1.42,0,2.37-.73,2.45-2.62v-7h-1.8c-2.15,0-3.1,1-3.1,3.83v2.79C325.17,348.77,326.12,349.59,327.62,349.59Z" fill="#573c79"/><path d="M372.73,323.1c4.6,0,7,2.75,7,7.57v.95h-4.48v-1.25c0-2.15-.86-3-2.36-3s-2.37.82-2.37,3,.95,3.83,4.05,6.53c3.95,3.49,5.2,6,5.2,9.42,0,4.82-2.41,7.57-7.05,7.57s-7.05-2.75-7.05-7.57v-1.85h4.47v2.15c0,2.15.94,2.93,2.45,2.93s2.45-.78,2.45-2.93-.95-3.82-4-6.53c-4-3.49-5.21-6-5.21-9.42C365.76,325.85,368.13,323.1,372.73,323.1Z" fill="#573c79"/><path d="M392.81,330.67c0-4.82,2.54-7.57,7.18-7.57s7.18,2.75,7.18,7.57v15.65c0,4.82-2.53,7.57-7.18,7.57s-7.18-2.75-7.18-7.57Zm4.73,15.95c0,2.15.95,3,2.45,3s2.45-.82,2.45-3V330.37c0-2.15-.94-3-2.45-3s-2.45.82-2.45,3Z" fill="#573c79"/><path d="M425.49,323.45v23.21c0,2.16.95,2.93,2.45,2.93s2.45-.77,2.45-2.93V323.45h4.47v22.91c0,4.82-2.4,7.57-7.05,7.57s-7.05-2.75-7.05-7.57V323.45Z" fill="#573c79"/><path d="M448.84,323.45h4.73v25.79h7.78v4.31H448.84Z" fill="#573c79"/><path d="M496.31,336.82h6.11v4.3h-6.11v12.43h-4.73v-30.1h12.51v4.29h-7.78Z" fill="#573c79"/><path d="M516.74,330.67c0-4.82,2.53-7.57,7.18-7.57s7.18,2.75,7.18,7.57v15.65c0,4.82-2.54,7.57-7.18,7.57s-7.18-2.75-7.18-7.57Zm4.73,15.95c0,2.15.94,3,2.45,3s2.45-.82,2.45-3V330.37c0-2.15-1-3-2.45-3s-2.45.82-2.45,3Z" fill="#573c79"/><path d="M544.51,330.67c0-4.82,2.54-7.57,7.18-7.57s7.19,2.75,7.19,7.57v15.65c0,4.82-2.54,7.57-7.19,7.57s-7.18-2.75-7.18-7.57Zm4.73,15.95c0,2.15,1,3,2.45,3s2.46-.82,2.46-3V330.37c0-2.15-.95-3-2.46-3s-2.45.82-2.45,3Z" fill="#573c79"/><path d="M572.68,323.45h7.48c4.73,0,7.05,2.62,7.05,7.44v15.22c0,4.81-2.32,7.44-7.05,7.44h-7.48Zm4.73,4.29v21.5h2.66c1.51,0,2.41-.77,2.41-2.92V330.67c0-2.15-.9-2.93-2.41-2.93Z" fill="#573c79"/><path d="M623.12,336.82h6.1v4.3h-6.1v12.43h-4.73v-30.1H630.9v4.29h-7.78Z" fill="#573c79"/><path d="M648.44,323.45v23.21c0,2.16.95,2.93,2.46,2.93s2.45-.77,2.45-2.93V323.45h4.47v22.91c0,4.82-2.41,7.57-7.05,7.57s-7.06-2.75-7.06-7.57V323.45Z" fill="#573c79"/><path d="M678.16,323.1c4.6,0,7,2.75,7,7.57v.95h-4.47v-1.25c0-2.15-.86-3-2.36-3s-2.37.82-2.37,3,1,3.83,4,6.53c4,3.49,5.21,6,5.21,9.42,0,4.82-2.41,7.57-7.06,7.57s-7.05-2.75-7.05-7.57v-1.85h4.47v2.15c0,2.15,1,2.93,2.45,2.93s2.46-.78,2.46-2.93-1-3.82-4.05-6.53c-3.95-3.49-5.2-6-5.2-9.42C671.19,325.85,673.56,323.1,678.16,323.1Z" fill="#573c79"/><path d="M698.62,323.45h4.73v30.1h-4.73Z" fill="#573c79"/><path d="M717.16,330.67c0-4.82,2.53-7.57,7.18-7.57s7.18,2.75,7.18,7.57v15.65c0,4.82-2.54,7.57-7.18,7.57s-7.18-2.75-7.18-7.57Zm4.73,15.95c0,2.15.94,3,2.45,3s2.45-.82,2.45-3V330.37c0-2.15-.95-3-2.45-3s-2.45.82-2.45,3Z" fill="#573c79"/><path d="M749.62,331.74h-.08v21.81h-4.26v-30.1h5.93l4.78,18h.08v-18h4.22v30.1h-4.86Z" fill="#573c79"/></g></g></svg>